<svg width="16" height="16" viewBox="0 0 16 16" fill="none" xmlns="http://www.w3.org/2000/svg">
<path d="M4.47776 8.79694H3.73882V9.90186H4.58844V10.0953H3.60536V7.38696H4.583V7.58227H3.73882V8.60349H4.47776V8.79694ZM5.58127 10.0953C5.56825 10.0321 5.55994 9.93843 5.55631 9.81443C5.51075 9.9161 5.45251 9.99486 5.38161 10.0507C5.31145 10.1052 5.23695 10.1325 5.15809 10.1325C5.04525 10.1325 4.95374 10.0786 4.88357 9.97067C4.81412 9.86279 4.7794 9.72639 4.7794 9.56145C4.7794 9.36551 4.82679 9.2105 4.92155 9.09643C5.01704 8.98233 5.14978 8.92528 5.31977 8.92528H5.55522V8.69648C5.55522 8.55264 5.52919 8.4398 5.4771 8.35795C5.42575 8.27486 5.35051 8.23332 5.25141 8.23332C5.16099 8.23332 5.08611 8.273 5.0268 8.35237C4.96748 8.43174 4.93782 8.52723 4.93782 8.63883L4.80761 8.63698C4.80761 8.477 4.85102 8.33873 4.93782 8.22216C5.02464 8.10435 5.13132 8.04545 5.25792 8.04545C5.38886 8.04545 5.49194 8.10187 5.56717 8.21473C5.64312 8.32633 5.68218 8.48258 5.68436 8.68347V9.63585C5.68436 9.83054 5.69629 9.97626 5.72016 10.073V10.0953H5.58127ZM5.17328 9.93534C5.26009 9.93534 5.33749 9.89938 5.40549 9.82745C5.47421 9.75551 5.52412 9.65942 5.55522 9.53913V9.09643H5.32302C5.19354 9.0989 5.09227 9.13982 5.0192 9.21919C4.94615 9.2973 4.90961 9.40521 4.90961 9.54285C4.90961 9.6557 4.93385 9.74932 4.98231 9.82372C5.0315 9.89812 5.09516 9.93534 5.17328 9.93534ZM6.7347 9.58378C6.7347 9.4734 6.70866 9.38473 6.65658 9.31778C6.60521 9.25081 6.52745 9.19873 6.42328 9.16153C6.31911 9.12307 6.2381 9.07968 6.18022 9.03132C6.12308 8.9817 6.0804 8.92157 6.05219 8.85088C6.0247 8.7802 6.01096 8.69464 6.01096 8.59418C6.01096 8.43545 6.04966 8.30464 6.12706 8.2017C6.20446 8.09753 6.30357 8.04545 6.42437 8.04545C6.5553 8.04545 6.66019 8.10124 6.73904 8.21286C6.81861 8.32323 6.8584 8.4677 6.8584 8.64627H6.72819C6.72819 8.52846 6.69926 8.4305 6.64138 8.35237C6.58424 8.27425 6.5119 8.23519 6.42437 8.23519C6.33901 8.23519 6.27029 8.26804 6.2182 8.33378C6.16685 8.39825 6.14117 8.48258 6.14117 8.58675C6.14117 8.68719 6.1625 8.76532 6.20519 8.82111C6.24859 8.87568 6.32708 8.92591 6.44065 8.9718C6.55494 9.01766 6.6403 9.06665 6.69672 9.11873C6.75387 9.17083 6.79619 9.23346 6.82368 9.30662C6.85117 9.37978 6.86491 9.46845 6.86491 9.57262C6.86491 9.7425 6.82476 9.87829 6.74447 9.97997C6.66489 10.0817 6.56072 10.1325 6.43197 10.1325C6.29525 10.1325 6.18421 10.0761 6.09885 9.96323C6.01421 9.84915 5.97189 9.7053 5.97189 9.53168H6.1021C6.10717 9.66189 6.139 9.76359 6.19759 9.83675C6.25691 9.90867 6.33504 9.94464 6.43197 9.94464C6.52239 9.94464 6.59545 9.91052 6.65115 9.84233C6.70685 9.77412 6.7347 9.68793 6.7347 9.58378ZM7.3597 7.5674V8.08265H7.60276V8.26494H7.3597V9.60608C7.3597 9.7177 7.37127 9.80079 7.39442 9.85534C7.41829 9.90991 7.45771 9.93719 7.51269 9.93719C7.53439 9.93719 7.56948 9.931 7.61795 9.9186L7.62337 10.1009C7.58937 10.122 7.54308 10.1325 7.48448 10.1325C7.3955 10.1325 7.33077 10.0885 7.29026 10.0004C7.24975 9.91115 7.22949 9.78033 7.22949 9.60795V8.26494H7.01356V8.08265H7.22949V7.5674H7.3597ZM8.49251 8.96806H8.03352V10.0953H7.89898V7.38696H8.41221C8.58077 7.38696 8.71243 7.45704 8.80718 7.59717C8.90195 7.73728 8.94932 7.93323 8.94932 8.18496C8.94932 8.35858 8.91967 8.51172 8.86035 8.64441C8.80104 8.77709 8.72146 8.86886 8.62164 8.9197L9.0166 10.0711V10.0953H8.87446L8.49251 8.96806ZM8.03352 8.77275H8.4426C8.55472 8.77275 8.64478 8.7182 8.71278 8.60907C8.78078 8.49993 8.81478 8.35858 8.81478 8.18496C8.81478 7.99399 8.77934 7.8458 8.70845 7.74039C8.63755 7.63498 8.53809 7.58227 8.41005 7.58227H8.03352V8.77275ZM9.21082 9.05921C9.21082 8.86576 9.23254 8.69153 9.27594 8.53652C9.32006 8.38151 9.38191 8.26123 9.46148 8.17566C9.54178 8.08885 9.63256 8.04545 9.73384 8.04545C9.89008 8.04545 10.0167 8.1397 10.1136 8.3282C10.2105 8.51544 10.259 8.76408 10.259 9.0741V9.1206C10.259 9.31528 10.2369 9.49077 10.1928 9.64702C10.1494 9.80203 10.0879 9.92168 10.0084 10.006C9.92878 10.0904 9.838 10.1325 9.736 10.1325C9.58048 10.1325 9.45388 10.0389 9.35622 9.85163C9.25929 9.66313 9.21082 9.41387 9.21082 9.10385V9.05921ZM9.34104 9.1206C9.34104 9.36117 9.3772 9.55896 9.44955 9.71397C9.5226 9.86774 9.61809 9.94464 9.736 9.94464C9.85319 9.94464 9.94796 9.86774 10.0203 9.71397C10.0933 9.55896 10.1299 9.35498 10.1299 9.10201V9.05921C10.1299 8.90545 10.1132 8.76469 10.08 8.63698C10.0467 8.50925 10 8.41065 9.93999 8.34121C9.87996 8.27052 9.81124 8.23519 9.73384 8.23519C9.61809 8.23519 9.52369 8.3133 9.45063 8.46955C9.37757 8.62456 9.34104 8.82795 9.34104 9.07968V9.1206ZM10.9621 9.94464C11.0526 9.94464 11.1281 9.90123 11.1889 9.81443C11.2504 9.72639 11.2837 9.6129 11.2888 9.47403H11.4136C11.4099 9.59679 11.3874 9.70902 11.3462 9.81071C11.305 9.91115 11.25 9.98989 11.1813 10.0469C11.1133 10.104 11.0403 10.1325 10.9621 10.1325C10.808 10.1325 10.6858 10.0407 10.5954 9.85721C10.5057 9.67368 10.4608 9.4269 10.4608 9.11688V9.04991C10.4608 8.85151 10.4811 8.67603 10.5216 8.52349C10.5621 8.37098 10.62 8.25317 10.6952 8.17008C10.7712 8.087 10.8598 8.04545 10.961 8.04545C11.0898 8.04545 11.1958 8.11117 11.279 8.24262C11.3629 8.37406 11.4078 8.54705 11.4136 8.76159H11.2888C11.283 8.6041 11.2497 8.477 11.1889 8.38027C11.1289 8.28355 11.0529 8.23519 10.961 8.23519C10.8439 8.23519 10.7527 8.30772 10.6876 8.45283C10.6232 8.59791 10.591 8.80128 10.591 9.06294V9.12805C10.591 9.38473 10.6232 9.58502 10.6876 9.72886C10.7527 9.87271 10.8442 9.94464 10.9621 9.94464ZM11.9528 9.08153L11.8041 9.32707V10.0953H11.6739V7.23816H11.8041V9.06666L11.9268 8.83972L12.376 8.08265H12.5398L12.0418 8.93086L12.5832 10.0953H12.4281L11.9528 9.08153ZM1.44281 14.0127C1.42474 14.2979 1.36506 14.5162 1.26378 14.6675C1.16324 14.8188 1.02904 14.8944 0.861219 14.8944C0.744033 14.8944 0.640227 14.8442 0.549805 14.7437C0.460106 14.6433 0.390662 14.5013 0.341472 14.3178C0.292282 14.133 0.267325 13.9222 0.266602 13.6853V13.3338C0.266602 13.0932 0.291196 12.8799 0.340386 12.6939C0.389576 12.5079 0.460106 12.3647 0.551975 12.2642C0.644567 12.1625 0.750904 12.1117 0.870985 12.1117C1.04026 12.1117 1.17372 12.1904 1.27138 12.3479C1.36976 12.5042 1.4269 12.7206 1.44281 12.9971H1.30827C1.27499 12.537 1.12924 12.307 0.870985 12.307C0.727756 12.307 0.613463 12.3988 0.528104 12.5823C0.443468 12.7658 0.40115 13.0194 0.40115 13.3431V13.6742C0.40115 13.9867 0.442383 14.2359 0.524848 14.4219C0.608037 14.608 0.72016 14.701 0.861219 14.701C1.00083 14.701 1.10608 14.6439 1.17698 14.5298C1.24787 14.4145 1.29164 14.2421 1.30827 14.0127H1.44281ZM2.47797 14.8572C2.46495 14.794 2.45664 14.7003 2.45301 14.5763C2.40745 14.678 2.34921 14.7568 2.27832 14.8126C2.20815 14.8671 2.13365 14.8944 2.05479 14.8944C1.94195 14.8944 1.85044 14.8405 1.78027 14.7326C1.71082 14.6247 1.6761 14.4883 1.6761 14.3234C1.6761 14.1274 1.72349 13.9724 1.81825 13.8583C1.91374 13.7442 2.04648 13.6872 2.21647 13.6872H2.45194V13.4584C2.45194 13.3145 2.42589 13.2017 2.3738 13.1199C2.32245 13.0368 2.24721 12.9952 2.14811 12.9952C2.05769 12.9952 1.98282 13.0349 1.9235 13.1143C1.86418 13.1936 1.83452 13.2891 1.83452 13.4007L1.70431 13.3989C1.70431 13.2389 1.74772 13.1006 1.83452 12.9841C1.92134 12.8663 2.02804 12.8074 2.15462 12.8074C2.28556 12.8074 2.38864 12.8638 2.46387 12.9766C2.53982 13.0882 2.57888 13.2445 2.58106 13.4454V14.3978C2.58106 14.5924 2.59299 14.7382 2.61686 14.8349V14.8572H2.47797ZM2.06999 14.6972C2.15679 14.6972 2.23419 14.6613 2.30219 14.5894C2.37091 14.5174 2.42082 14.4213 2.45194 14.301V13.8583H2.21972C2.09025 13.8608 1.98897 13.9017 1.9159 13.9811C1.84285 14.0592 1.80631 14.1671 1.80631 14.3048C1.80631 14.4176 1.83055 14.5112 1.87901 14.5856C1.9282 14.66 1.99186 14.6972 2.06999 14.6972ZM3.87229 13.8713C3.87229 14.1851 3.83178 14.4343 3.75076 14.6191C3.66974 14.8026 3.56124 14.8944 3.42524 14.8944C3.26465 14.8944 3.14167 14.7977 3.05631 14.6042V15.631H2.92719V12.8446H3.04764L3.05415 13.1291C3.13878 12.9146 3.26139 12.8074 3.42198 12.8074C3.56231 12.8074 3.67227 12.8985 3.75185 13.0808C3.83214 13.2631 3.87229 13.5161 3.87229 13.8397V13.8713ZM3.74208 13.8323C3.74208 13.5756 3.71134 13.3728 3.64985 13.224C3.58836 13.0752 3.50264 13.0008 3.39269 13.0008C3.31311 13.0008 3.24476 13.0337 3.18761 13.0994C3.13046 13.1651 3.08669 13.2606 3.05631 13.3859V14.3513C3.08742 14.4666 3.13191 14.5546 3.18978 14.6154C3.24765 14.6762 3.31601 14.7065 3.39486 14.7065C3.50409 14.7065 3.58908 14.6321 3.64985 14.4833C3.71134 14.3333 3.74208 14.1163 3.74208 13.8323ZM4.30631 14.8572H4.1761V12.8446H4.30631V14.8572ZM4.15333 12.2624C4.15333 12.2202 4.16128 12.1848 4.17719 12.1563C4.1931 12.1266 4.2148 12.1117 4.24229 12.1117C4.26978 12.1117 4.29148 12.1266 4.3074 12.1563C4.32404 12.1848 4.33236 12.2202 4.33236 12.2624C4.33236 12.3045 4.32404 12.3399 4.3074 12.3684C4.29148 12.3969 4.26978 12.4112 4.24229 12.4112C4.2148 12.4112 4.1931 12.3969 4.17719 12.3684C4.16128 12.3399 4.15333 12.3045 4.15333 12.2624ZM4.86187 12.3293V12.8446H5.10492V13.0268H4.86187V14.368C4.86187 14.4796 4.87345 14.5627 4.89659 14.6172C4.92047 14.6718 4.95989 14.6991 5.01487 14.6991C5.03657 14.6991 5.07165 14.6929 5.12011 14.6805L5.12555 14.8628C5.09155 14.8839 5.04525 14.8944 4.98666 14.8944C4.89768 14.8944 4.83294 14.8504 4.79242 14.7624C4.75191 14.6731 4.73166 14.5422 4.73166 14.3699V13.0268H4.51574V12.8446H4.73166V12.3293H4.86187ZM6.11513 14.8572C6.1021 14.794 6.09379 14.7003 6.09017 14.5763C6.04459 14.678 5.98637 14.7568 5.91547 14.8126C5.8453 14.8671 5.7708 14.8944 5.69195 14.8944C5.5791 14.8944 5.48759 14.8405 5.41742 14.7326C5.34798 14.6247 5.31326 14.4883 5.31326 14.3234C5.31326 14.1274 5.36064 13.9724 5.4554 13.8583C5.55089 13.7442 5.68363 13.6872 5.85363 13.6872H6.08908V13.4584C6.08908 13.3145 6.06305 13.2017 6.01096 13.1199C5.9596 13.0368 5.88437 12.9952 5.78527 12.9952C5.69485 12.9952 5.61997 13.0349 5.56066 13.1143C5.50134 13.1936 5.47168 13.2891 5.47168 13.4007L5.34147 13.3989C5.34147 13.2389 5.38487 13.1006 5.47168 12.9841C5.55848 12.8663 5.66518 12.8074 5.79178 12.8074C5.9227 12.8074 6.02579 12.8638 6.10102 12.9766C6.17698 13.0882 6.21604 13.2445 6.2182 13.4454V14.3978C6.2182 14.5924 6.23015 14.7382 6.25401 14.8349V14.8572H6.11513ZM5.70714 14.6972C5.79395 14.6972 5.87135 14.6613 5.93935 14.5894C6.00807 14.5174 6.05798 14.4213 6.08908 14.301V13.8583H5.85688C5.72739 13.8608 5.62612 13.9017 5.55306 13.9811C5.48 14.0592 5.44347 14.1671 5.44347 14.3048C5.44347 14.4176 5.4677 14.5112 5.51617 14.5856C5.56536 14.66 5.62901 14.6972 5.70714 14.6972ZM6.71082 14.8572H6.58062V12.0001H6.71082V14.8572ZM8.48817 14.0983H7.77095L7.60818 14.8572H7.4682L8.06608 12.1489H8.19304L8.7909 14.8572H8.65201L8.48817 14.0983ZM7.81217 13.903H8.44586L8.12901 12.4279L7.81217 13.903ZM8.94174 13.8323C8.94174 13.5198 8.98224 13.2712 9.06326 13.0864C9.145 12.9004 9.25568 12.8074 9.39529 12.8074C9.55371 12.8074 9.67451 12.9146 9.7577 13.1291V12.0001H9.88682V14.8572H9.7653L9.75987 14.5894C9.67668 14.7927 9.55444 14.8944 9.39312 14.8944C9.25785 14.8944 9.14861 14.8014 9.06542 14.6154C8.98297 14.4281 8.94174 14.1758 8.94174 13.8583V13.8323ZM9.07303 13.8713C9.07303 14.128 9.10305 14.3308 9.16309 14.4796C9.22313 14.6272 9.30776 14.701 9.41699 14.701C9.57686 14.701 9.69042 14.58 9.7577 14.3382V13.3933C9.69042 13.1316 9.57758 13.0008 9.41916 13.0008C9.30994 13.0008 9.22494 13.0746 9.16417 13.2222C9.1034 13.3685 9.07303 13.5849 9.07303 13.8713ZM10.5943 14.5503L10.9513 12.8446H11.0847L10.6464 14.8572H10.5411L10.1006 12.8446H10.234L10.5943 14.5503ZM11.4439 14.8572H11.3137V12.8446H11.4439V14.8572ZM11.2909 12.2624C11.2909 12.2202 11.2989 12.1848 11.3148 12.1563C11.3307 12.1266 11.3524 12.1117 11.3799 12.1117C11.4073 12.1117 11.4291 12.1266 11.445 12.1563C11.4617 12.1848 11.4699 12.2202 11.4699 12.2624C11.4699 12.3045 11.4617 12.3399 11.445 12.3684C11.4291 12.3969 11.4073 12.4112 11.3799 12.4112C11.3524 12.4112 11.3307 12.3969 11.3148 12.3684C11.2989 12.3399 11.2909 12.3045 11.2909 12.2624ZM12.5008 14.3457C12.5008 14.2353 12.4747 14.1466 12.4227 14.0797C12.3712 14.0127 12.2936 13.9606 12.1893 13.9234C12.0852 13.885 12.0041 13.8416 11.9463 13.7932C11.8891 13.7436 11.8464 13.6835 11.8182 13.6128C11.7908 13.5421 11.777 13.4565 11.777 13.3561C11.777 13.1974 11.8157 13.0665 11.8931 12.9636C11.9706 12.8594 12.0697 12.8074 12.1904 12.8074C12.3213 12.8074 12.4262 12.8632 12.5051 12.9748C12.5847 13.0851 12.6244 13.2296 12.6244 13.4082H12.4942C12.4942 13.2904 12.4653 13.1924 12.4074 13.1143C12.3503 13.0362 12.278 12.9971 12.1904 12.9971C12.1051 12.9971 12.0363 13.03 11.9842 13.0957C11.9329 13.1602 11.9072 13.2445 11.9072 13.3487C11.9072 13.4491 11.9286 13.5272 11.9712 13.583C12.0147 13.6376 12.0931 13.6878 12.2067 13.7337C12.321 13.7796 12.4063 13.8286 12.4628 13.8806C12.5199 13.9327 12.5622 13.9954 12.5898 14.0685C12.6172 14.1417 12.631 14.2304 12.631 14.3345C12.631 14.5044 12.5908 14.6402 12.5106 14.7419C12.431 14.8436 12.3268 14.8944 12.198 14.8944C12.0613 14.8944 11.9502 14.838 11.8649 14.7251C11.7802 14.6111 11.738 14.4672 11.738 14.2936H11.8681C11.8732 14.4238 11.905 14.5255 11.9637 14.5987C12.023 14.6706 12.1011 14.7065 12.198 14.7065C12.2884 14.7065 12.3616 14.6724 12.4172 14.6042C12.4729 14.536 12.5008 14.4498 12.5008 14.3457ZM12.8523 13.8211C12.8523 13.6277 12.874 13.4534 12.9174 13.2984C12.9616 13.1434 13.0234 13.0231 13.103 12.9376C13.1832 12.8508 13.274 12.8074 13.3753 12.8074C13.5316 12.8074 13.6581 12.9016 13.7551 13.0901C13.852 13.2773 13.9004 13.526 13.9004 13.836V13.8825C13.9004 14.0772 13.8784 14.2527 13.8343 14.4089C13.7909 14.5639 13.7294 14.6836 13.6499 14.7679C13.5702 14.8523 13.4794 14.8944 13.3774 14.8944C13.222 14.8944 13.0953 14.8008 12.9977 14.6135C12.9008 14.425 12.8523 14.1758 12.8523 13.8658V13.8211ZM12.9826 13.8825C12.9826 14.1231 13.0187 14.3209 13.091 14.4759C13.1641 14.6296 13.2596 14.7065 13.3774 14.7065C13.4947 14.7065 13.5894 14.6296 13.6618 14.4759C13.7349 14.3209 13.7713 14.1169 13.7713 13.8639V13.8211C13.7713 13.6674 13.7548 13.5266 13.7214 13.3989C13.6882 13.2712 13.6416 13.1726 13.5814 13.1031C13.5214 13.0324 13.4528 12.9971 13.3753 12.9971C13.2596 12.9971 13.1652 13.0752 13.0921 13.2315C13.0191 13.3865 12.9826 13.5899 12.9826 13.8416V13.8825ZM14.7121 13.0343C14.6847 13.0256 14.6553 13.0213 14.6242 13.0213C14.5432 13.0213 14.4744 13.0603 14.4181 13.1385C14.3623 13.2153 14.3226 13.3276 14.2987 13.4751V14.8572H14.1696V12.8446H14.2966L14.2987 13.1645C14.3674 12.9264 14.4778 12.8074 14.6297 12.8074C14.6658 12.8074 14.6944 12.8154 14.7153 12.8315L14.7121 13.0343ZM15.6214 14.3457C15.6214 14.2353 15.5953 14.1466 15.5433 14.0797C15.4919 14.0127 15.4142 13.9606 15.31 13.9234C15.2059 13.885 15.1248 13.8416 15.067 13.7932C15.0098 13.7436 14.9671 13.6835 14.9389 13.6128C14.9114 13.5421 14.8977 13.4565 14.8977 13.3561C14.8977 13.1974 14.9363 13.0665 15.0138 12.9636C15.0912 12.8594 15.1903 12.8074 15.3111 12.8074C15.442 12.8074 15.5469 12.8632 15.6258 12.9748C15.7053 13.0851 15.7451 13.2296 15.7451 13.4082H15.6149C15.6149 13.2904 15.586 13.1924 15.5281 13.1143C15.471 13.0362 15.3987 12.9971 15.3111 12.9971C15.2258 12.9971 15.157 13.03 15.1049 13.0957C15.0536 13.1602 15.0279 13.2445 15.0279 13.3487C15.0279 13.4491 15.0492 13.5272 15.0919 13.583C15.1353 13.6376 15.2138 13.6878 15.3273 13.7337C15.4417 13.7796 15.527 13.8286 15.5834 13.8806C15.6406 13.9327 15.6829 13.9954 15.7104 14.0685C15.7379 14.1417 15.7517 14.2304 15.7517 14.3345C15.7517 14.5044 15.7114 14.6402 15.6312 14.7419C15.5516 14.8436 15.4474 14.8944 15.3187 14.8944C15.182 14.8944 15.0709 14.838 14.9856 14.7251C14.9009 14.6111 14.8587 14.4672 14.8587 14.2936H14.9888C14.9939 14.4238 15.0257 14.5255 15.0843 14.5987C15.1437 14.6706 15.2218 14.7065 15.3187 14.7065C15.4091 14.7065 15.4821 14.6724 15.5379 14.6042C15.5936 14.536 15.6214 14.4498 15.6214 14.3457Z" fill="white"/>
<path d="M4.41522 3.06463L2 5.43537L4.1702 4.7415L4.41522 5.43537V4.97278L4.73026 5.43537L4.55523 4.45238L4.73026 4.7415V4.27891L5.08028 5.14627L5.60533 5.43537L5.50032 5.14627L6.93546 3.70069H7.14547L8.16057 5.60884L7.95054 4.45238V3.98979L7.77553 4.27891L7.95054 1.56122L8.79062 2.13945L9.24567 2.83333L9.14066 2.13945L11.2409 5.43537H11.4509L11.8009 5.14627L12.571 6.47619L12.0459 4.97278L13.061 5.43537L14.1111 6.18707L13.5861 5.14627L13.061 4.45238L12.816 4.7415L11.9409 3.35373L11.2409 3.98979L9.45569 1.56122H8.93063L7.95054 0L6.76043 1.96598L6.27039 2.13945L5.08028 3.98979L4.41522 3.06463Z" fill="white"/>
</svg>
