<svg width="144" height="84" viewBox="0 0 144 84" fill="none" xmlns="http://www.w3.org/2000/svg">
<path d="M40.3008 46.1836H33.6504V51.9844H41.2969V53H32.4492V38.7812H41.248V39.8066H33.6504V45.168H40.3008V46.1836ZM50.2324 53C50.1152 52.668 50.0404 52.1764 50.0078 51.5254C49.5977 52.0592 49.0736 52.4727 48.4355 52.7656C47.804 53.0521 47.1335 53.1953 46.4238 53.1953C45.4082 53.1953 44.5846 52.9121 43.9531 52.3457C43.3281 51.7793 43.0156 51.0632 43.0156 50.1973C43.0156 49.1686 43.4421 48.3548 44.2949 47.7559C45.1543 47.1569 46.349 46.8574 47.8789 46.8574H49.998V45.6562C49.998 44.901 49.7637 44.3086 49.2949 43.8789C48.8327 43.4427 48.1556 43.2246 47.2637 43.2246C46.4499 43.2246 45.776 43.4329 45.2422 43.8496C44.7083 44.2663 44.4414 44.7676 44.4414 45.3535L43.2695 45.3438C43.2695 44.5039 43.6602 43.778 44.4414 43.166C45.2227 42.5475 46.1829 42.2383 47.3223 42.2383C48.5007 42.2383 49.4284 42.5345 50.1055 43.127C50.7891 43.7129 51.1406 44.5332 51.1602 45.5879V50.5879C51.1602 51.61 51.2676 52.375 51.4824 52.8828V53H50.2324ZM46.5605 52.1602C47.3418 52.1602 48.0384 51.9714 48.6504 51.5938C49.2689 51.2161 49.7181 50.7116 49.998 50.0801V47.7559H47.9082C46.7428 47.7689 45.8314 47.9837 45.1738 48.4004C44.5163 48.8105 44.1875 49.377 44.1875 50.0996C44.1875 50.6921 44.4056 51.1836 44.8418 51.5742C45.2845 51.9648 45.8574 52.1602 46.5605 52.1602ZM60.6133 50.3145C60.6133 49.735 60.3789 49.2695 59.9102 48.918C59.4479 48.5664 58.748 48.293 57.8105 48.0977C56.873 47.8958 56.1439 47.668 55.623 47.4141C55.1087 47.1536 54.7246 46.8379 54.4707 46.4668C54.2233 46.0957 54.0996 45.6465 54.0996 45.1191C54.0996 44.2858 54.4479 43.599 55.1445 43.0586C55.8411 42.5117 56.7331 42.2383 57.8203 42.2383C58.9987 42.2383 59.9427 42.5312 60.6523 43.1172C61.3685 43.6966 61.7266 44.4551 61.7266 45.3926H60.5547C60.5547 44.7741 60.2943 44.2598 59.7734 43.8496C59.2591 43.4395 58.6081 43.2344 57.8203 43.2344C57.0521 43.2344 56.4336 43.4069 55.9648 43.752C55.5026 44.0905 55.2715 44.5332 55.2715 45.0801C55.2715 45.6074 55.4635 46.0176 55.8477 46.3105C56.2383 46.597 56.9447 46.8607 57.9668 47.1016C58.9954 47.3424 59.7637 47.5996 60.2715 47.873C60.7858 48.1465 61.1667 48.4753 61.4141 48.8594C61.6615 49.2435 61.7852 49.709 61.7852 50.2559C61.7852 51.1478 61.4238 51.8607 60.7012 52.3945C59.985 52.9284 59.0475 53.1953 57.8887 53.1953C56.6582 53.1953 55.6589 52.8991 54.8906 52.3066C54.1289 51.7077 53.748 50.9525 53.748 50.041H54.9199C54.9655 50.7246 55.252 51.2585 55.7793 51.6426C56.3132 52.0202 57.0163 52.209 57.8887 52.209C58.7025 52.209 59.36 52.0299 59.8613 51.6719C60.3626 51.3138 60.6133 50.8613 60.6133 50.3145ZM66.2383 39.7285V42.4336H68.4258V43.3906H66.2383V50.4316C66.2383 51.0176 66.3424 51.4538 66.5508 51.7402C66.7656 52.0267 67.1204 52.1699 67.6152 52.1699C67.8105 52.1699 68.1263 52.1374 68.5625 52.0723L68.6113 53.0293C68.3053 53.14 67.8887 53.1953 67.3613 53.1953C66.5605 53.1953 65.9779 52.9642 65.6133 52.502C65.2487 52.0332 65.0664 51.3464 65.0664 50.4414V43.3906H63.123V42.4336H65.0664V39.7285H66.2383ZM76.4336 47.082H72.3027V53H71.0918V38.7812H75.7109C77.2279 38.7812 78.4128 39.1491 79.2656 39.8848C80.1185 40.6204 80.5449 41.6491 80.5449 42.9707C80.5449 43.8822 80.278 44.6862 79.7441 45.3828C79.2103 46.0794 78.4941 46.5612 77.5957 46.8281L81.1504 52.873V53H79.8711L76.4336 47.082ZM72.3027 46.0566H75.9844C76.9935 46.0566 77.804 45.7702 78.416 45.1973C79.028 44.6243 79.334 43.8822 79.334 42.9707C79.334 41.9681 79.015 41.1901 78.377 40.6367C77.7389 40.0833 76.8438 39.8066 75.6914 39.8066H72.3027V46.0566ZM82.8984 47.5605C82.8984 46.5449 83.0938 45.6302 83.4844 44.8164C83.8815 44.0026 84.4382 43.3711 85.1543 42.9219C85.877 42.4661 86.694 42.2383 87.6055 42.2383C89.0117 42.2383 90.151 42.7331 91.0234 43.7227C91.8958 44.7057 92.332 46.0111 92.332 47.6387V47.8828C92.332 48.9049 92.1335 49.8262 91.7363 50.6465C91.3457 51.4603 90.7923 52.0885 90.0762 52.5312C89.36 52.974 88.543 53.1953 87.625 53.1953C86.2253 53.1953 85.0859 52.7038 84.207 51.7207C83.3346 50.7311 82.8984 49.4225 82.8984 47.7949V47.5605ZM84.0703 47.8828C84.0703 49.1458 84.3958 50.1842 85.0469 50.998C85.7044 51.8053 86.5638 52.209 87.625 52.209C88.6797 52.209 89.5326 51.8053 90.1836 50.998C90.8411 50.1842 91.1699 49.1133 91.1699 47.7852V47.5605C91.1699 46.7533 91.0202 46.0143 90.7207 45.3438C90.4212 44.6732 90.0013 44.1556 89.4609 43.791C88.9206 43.4199 88.3021 43.2344 87.6055 43.2344C86.5638 43.2344 85.7142 43.6445 85.0566 44.4648C84.3991 45.2786 84.0703 46.3464 84.0703 47.668V47.8828ZM98.6602 52.209C99.474 52.209 100.154 51.9811 100.701 51.5254C101.255 51.0632 101.554 50.4674 101.6 49.7383H102.723C102.69 50.3828 102.488 50.972 102.117 51.5059C101.746 52.0332 101.251 52.4466 100.633 52.7461C100.021 53.0456 99.3633 53.1953 98.6602 53.1953C97.2734 53.1953 96.1732 52.7135 95.3594 51.75C94.5521 50.7865 94.1484 49.4909 94.1484 47.8633V47.5117C94.1484 46.4701 94.3307 45.5488 94.6953 44.748C95.0599 43.9473 95.5807 43.3288 96.2578 42.8926C96.9414 42.4564 97.7389 42.2383 98.6504 42.2383C99.8092 42.2383 100.763 42.5833 101.512 43.2734C102.267 43.9635 102.671 44.8717 102.723 45.998H101.6C101.548 45.1712 101.248 44.5039 100.701 43.9961C100.161 43.4883 99.4772 43.2344 98.6504 43.2344C97.5957 43.2344 96.7754 43.6152 96.1895 44.377C95.61 45.1387 95.3203 46.2064 95.3203 47.5801V47.9219C95.3203 49.2695 95.61 50.321 96.1895 51.0762C96.7754 51.8314 97.599 52.209 98.6602 52.209ZM107.576 47.6777L106.238 48.9668V53H105.066V38H106.238V47.5996L107.342 46.4082L111.385 42.4336H112.859L108.377 46.8867L113.25 53H111.854L107.576 47.6777ZM12.9863 73.5664C12.8236 75.0638 12.2865 76.2096 11.375 77.0039C10.4701 77.7982 9.26237 78.1953 7.75195 78.1953C6.69727 78.1953 5.76302 77.9316 4.94922 77.4043C4.14193 76.877 3.51693 76.1315 3.07422 75.168C2.63151 74.1979 2.4069 73.0911 2.40039 71.8477V70.002C2.40039 68.7389 2.62174 67.6191 3.06445 66.6426C3.50716 65.666 4.14193 64.9141 4.96875 64.3867C5.80208 63.8529 6.75911 63.5859 7.83984 63.5859C9.36328 63.5859 10.5645 63.9993 11.4434 64.8262C12.3288 65.6465 12.8431 66.7826 12.9863 68.2344H11.7754C11.4759 65.819 10.1641 64.6113 7.83984 64.6113C6.55078 64.6113 5.52214 65.0931 4.75391 66.0566C3.99219 67.0202 3.61133 68.3516 3.61133 70.0508V71.7891C3.61133 73.4297 3.98242 74.7383 4.72461 75.7148C5.47331 76.6914 6.48242 77.1797 7.75195 77.1797C9.00846 77.1797 9.95573 76.8802 10.5938 76.2812C11.2318 75.6758 11.6257 74.7708 11.7754 73.5664H12.9863ZM22.3027 78C22.1855 77.668 22.1107 77.1764 22.0781 76.5254C21.668 77.0592 21.1439 77.4727 20.5059 77.7656C19.8743 78.0521 19.2038 78.1953 18.4941 78.1953C17.4785 78.1953 16.6549 77.9121 16.0234 77.3457C15.3984 76.7793 15.0859 76.0632 15.0859 75.1973C15.0859 74.1686 15.5124 73.3548 16.3652 72.7559C17.2246 72.1569 18.4193 71.8574 19.9492 71.8574H22.0684V70.6562C22.0684 69.901 21.834 69.3086 21.3652 68.8789C20.903 68.4427 20.2259 68.2246 19.334 68.2246C18.5202 68.2246 17.8464 68.4329 17.3125 68.8496C16.7786 69.2663 16.5117 69.7676 16.5117 70.3535L15.3398 70.3438C15.3398 69.5039 15.7305 68.778 16.5117 68.166C17.293 67.5475 18.2533 67.2383 19.3926 67.2383C20.571 67.2383 21.4987 67.5345 22.1758 68.127C22.8594 68.7129 23.2109 69.5332 23.2305 70.5879V75.5879C23.2305 76.61 23.3379 77.375 23.5527 77.8828V78H22.3027ZM18.6309 77.1602C19.4121 77.1602 20.1087 76.9714 20.7207 76.5938C21.3392 76.2161 21.7884 75.7116 22.0684 75.0801V72.7559H19.9785C18.8132 72.7689 17.9017 72.9837 17.2441 73.4004C16.5866 73.8105 16.2578 74.377 16.2578 75.0996C16.2578 75.6921 16.4759 76.1836 16.9121 76.5742C17.3548 76.9648 17.9277 77.1602 18.6309 77.1602ZM34.8516 72.8242C34.8516 74.4714 34.487 75.7799 33.7578 76.75C33.0286 77.7135 32.0521 78.1953 30.8281 78.1953C29.3828 78.1953 28.276 77.6875 27.5078 76.6719V82.0625H26.3457V67.4336H27.4297L27.4883 68.9277C28.25 67.8014 29.3535 67.2383 30.7988 67.2383C32.0618 67.2383 33.0514 67.7168 33.7676 68.6738C34.4902 69.6309 34.8516 70.959 34.8516 72.6582V72.8242ZM33.6797 72.6191C33.6797 71.2715 33.403 70.207 32.8496 69.4258C32.2962 68.6445 31.5247 68.2539 30.5352 68.2539C29.819 68.2539 29.2038 68.4264 28.6895 68.7715C28.1751 69.1165 27.7812 69.6178 27.5078 70.2754V75.3438C27.7878 75.9492 28.1882 76.4115 28.709 76.7305C29.2298 77.0495 29.8451 77.209 30.5547 77.209C31.5378 77.209 32.3027 76.8184 32.8496 76.0371C33.403 75.2493 33.6797 74.11 33.6797 72.6191ZM38.7578 78H37.5859V67.4336H38.7578V78ZM37.3809 64.377C37.3809 64.1556 37.4525 63.9701 37.5957 63.8203C37.7389 63.6641 37.9342 63.5859 38.1816 63.5859C38.429 63.5859 38.6243 63.6641 38.7676 63.8203C38.9173 63.9701 38.9922 64.1556 38.9922 64.377C38.9922 64.5983 38.9173 64.7839 38.7676 64.9336C38.6243 65.0833 38.429 65.1582 38.1816 65.1582C37.9342 65.1582 37.7389 65.0833 37.5957 64.9336C37.4525 64.7839 37.3809 64.5983 37.3809 64.377ZM43.7578 64.7285V67.4336H45.9453V68.3906H43.7578V75.4316C43.7578 76.0176 43.862 76.4538 44.0703 76.7402C44.2852 77.0267 44.64 77.1699 45.1348 77.1699C45.3301 77.1699 45.6458 77.1374 46.082 77.0723L46.1309 78.0293C45.8249 78.14 45.4082 78.1953 44.8809 78.1953C44.0801 78.1953 43.4974 77.9642 43.1328 77.502C42.7682 77.0332 42.5859 76.3464 42.5859 75.4414V68.3906H40.6426V67.4336H42.5859V64.7285H43.7578ZM55.0371 78C54.9199 77.668 54.8451 77.1764 54.8125 76.5254C54.4023 77.0592 53.8783 77.4727 53.2402 77.7656C52.6087 78.0521 51.9382 78.1953 51.2285 78.1953C50.2129 78.1953 49.3893 77.9121 48.7578 77.3457C48.1328 76.7793 47.8203 76.0632 47.8203 75.1973C47.8203 74.1686 48.2467 73.3548 49.0996 72.7559C49.959 72.1569 51.1536 71.8574 52.6836 71.8574H54.8027V70.6562C54.8027 69.901 54.5684 69.3086 54.0996 68.8789C53.6374 68.4427 52.9603 68.2246 52.0684 68.2246C51.2546 68.2246 50.5807 68.4329 50.0469 68.8496C49.513 69.2663 49.2461 69.7676 49.2461 70.3535L48.0742 70.3438C48.0742 69.5039 48.4648 68.778 49.2461 68.166C50.0273 67.5475 50.9876 67.2383 52.127 67.2383C53.3053 67.2383 54.2331 67.5345 54.9102 68.127C55.5938 68.7129 55.9453 69.5332 55.9648 70.5879V75.5879C55.9648 76.61 56.0723 77.375 56.2871 77.8828V78H55.0371ZM51.3652 77.1602C52.1465 77.1602 52.8431 76.9714 53.4551 76.5938C54.0736 76.2161 54.5228 75.7116 54.8027 75.0801V72.7559H52.7129C51.5475 72.7689 50.6361 72.9837 49.9785 73.4004C49.321 73.8105 48.9922 74.377 48.9922 75.0996C48.9922 75.6921 49.2103 76.1836 49.6465 76.5742C50.0892 76.9648 50.6621 77.1602 51.3652 77.1602ZM60.3984 78H59.2266V63H60.3984V78ZM76.3945 74.0156H69.9395L68.4746 78H67.2148L72.5957 63.7812H73.7383L79.1191 78H77.8691L76.3945 74.0156ZM70.3105 72.9902H76.0137L73.1621 65.2461L70.3105 72.9902ZM80.4766 72.6191C80.4766 70.9785 80.8411 69.6732 81.5703 68.7031C82.306 67.7266 83.3021 67.2383 84.5586 67.2383C85.9844 67.2383 87.0716 67.8014 87.8203 68.9277V63H88.9824V78H87.8887L87.8398 76.5938C87.0911 77.6615 85.9909 78.1953 84.5391 78.1953C83.3216 78.1953 82.3385 77.707 81.5898 76.7305C80.8477 75.7474 80.4766 74.4225 80.4766 72.7559V72.6191ZM81.6582 72.8242C81.6582 74.1719 81.9284 75.2363 82.4688 76.0176C83.0091 76.7923 83.7708 77.1797 84.7539 77.1797C86.1927 77.1797 87.2148 76.5449 87.8203 75.2754V70.3145C87.2148 68.9408 86.1992 68.2539 84.7734 68.2539C83.7904 68.2539 83.0254 68.6413 82.4785 69.416C81.9316 70.1842 81.6582 71.3203 81.6582 72.8242ZM95.3496 76.3887L98.5625 67.4336H99.7637L95.8184 78H94.8711L90.9062 67.4336H92.1074L95.3496 76.3887ZM102.996 78H101.824V67.4336H102.996V78ZM101.619 64.377C101.619 64.1556 101.691 63.9701 101.834 63.8203C101.977 63.6641 102.173 63.5859 102.42 63.5859C102.667 63.5859 102.863 63.6641 103.006 63.8203C103.156 63.9701 103.23 64.1556 103.23 64.377C103.23 64.5983 103.156 64.7839 103.006 64.9336C102.863 65.0833 102.667 65.1582 102.42 65.1582C102.173 65.1582 101.977 65.0833 101.834 64.9336C101.691 64.7839 101.619 64.5983 101.619 64.377ZM112.508 75.3145C112.508 74.735 112.273 74.2695 111.805 73.918C111.342 73.5664 110.643 73.293 109.705 73.0977C108.768 72.8958 108.038 72.668 107.518 72.4141C107.003 72.1536 106.619 71.8379 106.365 71.4668C106.118 71.0957 105.994 70.6465 105.994 70.1191C105.994 69.2858 106.342 68.599 107.039 68.0586C107.736 67.5117 108.628 67.2383 109.715 67.2383C110.893 67.2383 111.837 67.5312 112.547 68.1172C113.263 68.6966 113.621 69.4551 113.621 70.3926H112.449C112.449 69.7741 112.189 69.2598 111.668 68.8496C111.154 68.4395 110.503 68.2344 109.715 68.2344C108.947 68.2344 108.328 68.4069 107.859 68.752C107.397 69.0905 107.166 69.5332 107.166 70.0801C107.166 70.6074 107.358 71.0176 107.742 71.3105C108.133 71.597 108.839 71.8607 109.861 72.1016C110.89 72.3424 111.658 72.5996 112.166 72.873C112.68 73.1465 113.061 73.4753 113.309 73.8594C113.556 74.2435 113.68 74.709 113.68 75.2559C113.68 76.1478 113.318 76.8607 112.596 77.3945C111.88 77.9284 110.942 78.1953 109.783 78.1953C108.553 78.1953 107.553 77.8991 106.785 77.3066C106.023 76.7077 105.643 75.9525 105.643 75.041H106.814C106.86 75.7246 107.146 76.2585 107.674 76.6426C108.208 77.0202 108.911 77.209 109.783 77.209C110.597 77.209 111.255 77.0299 111.756 76.6719C112.257 76.3138 112.508 75.8613 112.508 75.3145ZM115.672 72.5605C115.672 71.5449 115.867 70.6302 116.258 69.8164C116.655 69.0026 117.212 68.3711 117.928 67.9219C118.65 67.4661 119.467 67.2383 120.379 67.2383C121.785 67.2383 122.924 67.7331 123.797 68.7227C124.669 69.7057 125.105 71.0111 125.105 72.6387V72.8828C125.105 73.9049 124.907 74.8262 124.51 75.6465C124.119 76.4603 123.566 77.0885 122.85 77.5312C122.133 77.974 121.316 78.1953 120.398 78.1953C118.999 78.1953 117.859 77.7038 116.98 76.7207C116.108 75.7311 115.672 74.4225 115.672 72.7949V72.5605ZM116.844 72.8828C116.844 74.1458 117.169 75.1842 117.82 75.998C118.478 76.8053 119.337 77.209 120.398 77.209C121.453 77.209 122.306 76.8053 122.957 75.998C123.615 75.1842 123.943 74.1133 123.943 72.7852V72.5605C123.943 71.7533 123.794 71.0143 123.494 70.3438C123.195 69.6732 122.775 69.1556 122.234 68.791C121.694 68.4199 121.076 68.2344 120.379 68.2344C119.337 68.2344 118.488 68.6445 117.83 69.4648C117.173 70.2786 116.844 71.3464 116.844 72.668V72.8828ZM132.41 68.4297C132.163 68.3841 131.899 68.3613 131.619 68.3613C130.89 68.3613 130.271 68.5664 129.764 68.9766C129.262 69.3802 128.904 69.9694 128.689 70.7441V78H127.527V67.4336H128.67L128.689 69.1133C129.308 67.8633 130.301 67.2383 131.668 67.2383C131.993 67.2383 132.251 67.2806 132.439 67.3652L132.41 68.4297ZM140.594 75.3145C140.594 74.735 140.359 74.2695 139.891 73.918C139.428 73.5664 138.729 73.293 137.791 73.0977C136.854 72.8958 136.124 72.668 135.604 72.4141C135.089 72.1536 134.705 71.8379 134.451 71.4668C134.204 71.0957 134.08 70.6465 134.08 70.1191C134.08 69.2858 134.428 68.599 135.125 68.0586C135.822 67.5117 136.714 67.2383 137.801 67.2383C138.979 67.2383 139.923 67.5312 140.633 68.1172C141.349 68.6966 141.707 69.4551 141.707 70.3926H140.535C140.535 69.7741 140.275 69.2598 139.754 68.8496C139.24 68.4395 138.589 68.2344 137.801 68.2344C137.033 68.2344 136.414 68.4069 135.945 68.752C135.483 69.0905 135.252 69.5332 135.252 70.0801C135.252 70.6074 135.444 71.0176 135.828 71.3105C136.219 71.597 136.925 71.8607 137.947 72.1016C138.976 72.3424 139.744 72.5996 140.252 72.873C140.766 73.1465 141.147 73.4753 141.395 73.8594C141.642 74.2435 141.766 74.709 141.766 75.2559C141.766 76.1478 141.404 76.8607 140.682 77.3945C139.965 77.9284 139.028 78.1953 137.869 78.1953C136.639 78.1953 135.639 77.8991 134.871 77.3066C134.109 76.7077 133.729 75.9525 133.729 75.041H134.9C134.946 75.7246 135.232 76.2585 135.76 76.6426C136.294 77.0202 136.997 77.209 137.869 77.209C138.683 77.209 139.34 77.0299 139.842 76.6719C140.343 76.3138 140.594 75.8613 140.594 75.3145Z" fill="white"/>
<path d="M39.737 16.0893L18 28.5357L37.5318 24.8929L39.737 28.5357V26.1071L42.5723 28.5357L40.9971 23.375L42.5723 24.8929V22.4643L45.7225 27.0179L50.448 28.5357L49.5029 27.0179L62.4191 19.4286H64.3092L73.4451 29.4464L71.5549 23.375V20.9464L69.9798 22.4643L71.5549 8.19643L79.1156 11.2321L83.211 14.875L82.2659 11.2321L101.168 28.5357H103.058L106.208 27.0179L113.139 34L108.413 26.1071L117.549 28.5357L127 32.4821L122.275 27.0179L117.549 23.375L115.344 24.8929L107.468 17.6071L101.168 20.9464L85.1012 8.19643H80.3757L71.5549 0L60.8439 10.3214L56.4335 11.2321L45.7225 20.9464L39.737 16.0893Z" fill="white"/>
</svg>
