<svg width="138" height="37" viewBox="0 0 138 37" fill="none" xmlns="http://www.w3.org/2000/svg">
<path d="M5.78906 29.9102H1.79883V33.3906H6.38672V34H1.07812V25.4688H6.35742V26.084H1.79883V29.3008H5.78906V29.9102ZM11.748 34C11.6777 33.8008 11.6328 33.5059 11.6133 33.1152C11.3672 33.4355 11.0527 33.6836 10.6699 33.8594C10.291 34.0312 9.88867 34.1172 9.46289 34.1172C8.85352 34.1172 8.35938 33.9473 7.98047 33.6074C7.60547 33.2676 7.41797 32.8379 7.41797 32.3184C7.41797 31.7012 7.67383 31.2129 8.18555 30.8535C8.70117 30.4941 9.41797 30.3145 10.3359 30.3145H11.6074V29.5938C11.6074 29.1406 11.4668 28.7852 11.1855 28.5273C10.9082 28.2656 10.502 28.1348 9.9668 28.1348C9.47852 28.1348 9.07422 28.2598 8.75391 28.5098C8.43359 28.7598 8.27344 29.0605 8.27344 29.4121L7.57031 29.4062C7.57031 28.9023 7.80469 28.4668 8.27344 28.0996C8.74219 27.7285 9.31836 27.543 10.002 27.543C10.709 27.543 11.2656 27.7207 11.6719 28.0762C12.082 28.4277 12.293 28.9199 12.3047 29.5527V32.5527C12.3047 33.166 12.3691 33.625 12.498 33.9297V34H11.748ZM9.54492 33.4961C10.0137 33.4961 10.4316 33.3828 10.7988 33.1562C11.1699 32.9297 11.4395 32.627 11.6074 32.248V30.8535H10.3535C9.6543 30.8613 9.10742 30.9902 8.71289 31.2402C8.31836 31.4863 8.12109 31.8262 8.12109 32.2598C8.12109 32.6152 8.25195 32.9102 8.51367 33.1445C8.7793 33.3789 9.12305 33.4961 9.54492 33.4961ZM17.9766 32.3887C17.9766 32.041 17.8359 31.7617 17.5547 31.5508C17.2773 31.3398 16.8574 31.1758 16.2949 31.0586C15.7324 30.9375 15.2949 30.8008 14.9824 30.6484C14.6738 30.4922 14.4434 30.3027 14.291 30.0801C14.1426 29.8574 14.0684 29.5879 14.0684 29.2715C14.0684 28.7715 14.2773 28.3594 14.6953 28.0352C15.1133 27.707 15.6484 27.543 16.3008 27.543C17.0078 27.543 17.5742 27.7188 18 28.0703C18.4297 28.418 18.6445 28.873 18.6445 29.4355H17.9414C17.9414 29.0645 17.7852 28.7559 17.4727 28.5098C17.1641 28.2637 16.7734 28.1406 16.3008 28.1406C15.8398 28.1406 15.4688 28.2441 15.1875 28.4512C14.9102 28.6543 14.7715 28.9199 14.7715 29.248C14.7715 29.5645 14.8867 29.8105 15.1172 29.9863C15.3516 30.1582 15.7754 30.3164 16.3887 30.4609C17.0059 30.6055 17.4668 30.7598 17.7715 30.9238C18.0801 31.0879 18.3086 31.2852 18.457 31.5156C18.6055 31.7461 18.6797 32.0254 18.6797 32.3535C18.6797 32.8887 18.4629 33.3164 18.0293 33.6367C17.5996 33.957 17.0371 34.1172 16.3418 34.1172C15.6035 34.1172 15.0039 33.9395 14.543 33.584C14.0859 33.2246 13.8574 32.7715 13.8574 32.2246H14.5605C14.5879 32.6348 14.7598 32.9551 15.0762 33.1855C15.3965 33.4121 15.8184 33.5254 16.3418 33.5254C16.8301 33.5254 17.2246 33.418 17.5254 33.2031C17.8262 32.9883 17.9766 32.7168 17.9766 32.3887ZM21.3516 26.0371V27.6602H22.6641V28.2344H21.3516V32.459C21.3516 32.8105 21.4141 33.0723 21.5391 33.2441C21.668 33.416 21.8809 33.502 22.1777 33.502C22.2949 33.502 22.4844 33.4824 22.7461 33.4434L22.7754 34.0176C22.5918 34.084 22.3418 34.1172 22.0254 34.1172C21.5449 34.1172 21.1953 33.9785 20.9766 33.7012C20.7578 33.4199 20.6484 33.0078 20.6484 32.4648V28.2344H19.4824V27.6602H20.6484V26.0371H21.3516ZM27.4688 30.4492H24.9902V34H24.2637V25.4688H27.0352C27.9453 25.4688 28.6562 25.6895 29.168 26.1309C29.6797 26.5723 29.9355 27.1895 29.9355 27.9824C29.9355 28.5293 29.7754 29.0117 29.4551 29.4297C29.1348 29.8477 28.7051 30.1367 28.166 30.2969L30.2988 33.9238V34H29.5312L27.4688 30.4492ZM24.9902 29.834H27.1992C27.8047 29.834 28.291 29.6621 28.6582 29.3184C29.0254 28.9746 29.209 28.5293 29.209 27.9824C29.209 27.3809 29.0176 26.9141 28.6348 26.582C28.252 26.25 27.7148 26.084 27.0234 26.084H24.9902V29.834ZM31.3477 30.7363C31.3477 30.127 31.4648 29.5781 31.6992 29.0898C31.9375 28.6016 32.2715 28.2227 32.7012 27.9531C33.1348 27.6797 33.625 27.543 34.1719 27.543C35.0156 27.543 35.6992 27.8398 36.2227 28.4336C36.7461 29.0234 37.0078 29.8066 37.0078 30.7832V30.9297C37.0078 31.543 36.8887 32.0957 36.6504 32.5879C36.416 33.0762 36.084 33.4531 35.6543 33.7188C35.2246 33.9844 34.7344 34.1172 34.1836 34.1172C33.3438 34.1172 32.6602 33.8223 32.1328 33.2324C31.6094 32.6387 31.3477 31.8535 31.3477 30.877V30.7363ZM32.0508 30.9297C32.0508 31.6875 32.2461 32.3105 32.6367 32.7988C33.0312 33.2832 33.5469 33.5254 34.1836 33.5254C34.8164 33.5254 35.3281 33.2832 35.7188 32.7988C36.1133 32.3105 36.3105 31.668 36.3105 30.8711V30.7363C36.3105 30.252 36.2207 29.8086 36.041 29.4062C35.8613 29.0039 35.6094 28.6934 35.2852 28.4746C34.9609 28.252 34.5898 28.1406 34.1719 28.1406C33.5469 28.1406 33.0371 28.3867 32.6426 28.8789C32.248 29.3672 32.0508 30.0078 32.0508 30.8008V30.9297ZM40.8047 33.5254C41.293 33.5254 41.7012 33.3887 42.0293 33.1152C42.3613 32.8379 42.541 32.4805 42.5684 32.043H43.2422C43.2227 32.4297 43.1016 32.7832 42.8789 33.1035C42.6562 33.4199 42.3594 33.668 41.9883 33.8477C41.6211 34.0273 41.2266 34.1172 40.8047 34.1172C39.9727 34.1172 39.3125 33.8281 38.8242 33.25C38.3398 32.6719 38.0977 31.8945 38.0977 30.918V30.707C38.0977 30.082 38.207 29.5293 38.4258 29.0488C38.6445 28.5684 38.957 28.1973 39.3633 27.9355C39.7734 27.6738 40.252 27.543 40.7988 27.543C41.4941 27.543 42.0664 27.75 42.5156 28.1641C42.9688 28.5781 43.2109 29.123 43.2422 29.7988H42.5684C42.5371 29.3027 42.3574 28.9023 42.0293 28.5977C41.7051 28.293 41.2949 28.1406 40.7988 28.1406C40.166 28.1406 39.6738 28.3691 39.3223 28.8262C38.9746 29.2832 38.8008 29.9238 38.8008 30.748V30.9531C38.8008 31.7617 38.9746 32.3926 39.3223 32.8457C39.6738 33.2988 40.168 33.5254 40.8047 33.5254ZM46.1543 30.8066L45.3516 31.5801V34H44.6484V25H45.3516V30.7598L46.0137 30.0449L48.4395 27.6602H49.3242L46.6348 30.332L49.5586 34H48.7207L46.1543 30.8066ZM59.6543 31.3398C59.5566 32.2383 59.2344 32.9258 58.6875 33.4023C58.1445 33.8789 57.4199 34.1172 56.5137 34.1172C55.8809 34.1172 55.3203 33.959 54.832 33.6426C54.3477 33.3262 53.9727 32.8789 53.707 32.3008C53.4414 31.7188 53.3066 31.0547 53.3027 30.3086V29.2012C53.3027 28.4434 53.4355 27.7715 53.7012 27.1855C53.9668 26.5996 54.3477 26.1484 54.8438 25.832C55.3438 25.5117 55.918 25.3516 56.5664 25.3516C57.4805 25.3516 58.2012 25.5996 58.7285 26.0957C59.2598 26.5879 59.5684 27.2695 59.6543 28.1406H58.9277C58.748 26.6914 57.9609 25.9668 56.5664 25.9668C55.793 25.9668 55.1758 26.2559 54.7148 26.834C54.2578 27.4121 54.0293 28.2109 54.0293 29.2305V30.2734C54.0293 31.2578 54.252 32.043 54.6973 32.6289C55.1465 33.2148 55.752 33.5078 56.5137 33.5078C57.2676 33.5078 57.8359 33.3281 58.2188 32.9688C58.6016 32.6055 58.8379 32.0625 58.9277 31.3398H59.6543ZM65.2441 34C65.1738 33.8008 65.1289 33.5059 65.1094 33.1152C64.8633 33.4355 64.5488 33.6836 64.166 33.8594C63.7871 34.0312 63.3848 34.1172 62.959 34.1172C62.3496 34.1172 61.8555 33.9473 61.4766 33.6074C61.1016 33.2676 60.9141 32.8379 60.9141 32.3184C60.9141 31.7012 61.1699 31.2129 61.6816 30.8535C62.1973 30.4941 62.9141 30.3145 63.832 30.3145H65.1035V29.5938C65.1035 29.1406 64.9629 28.7852 64.6816 28.5273C64.4043 28.2656 63.998 28.1348 63.4629 28.1348C62.9746 28.1348 62.5703 28.2598 62.25 28.5098C61.9297 28.7598 61.7695 29.0605 61.7695 29.4121L61.0664 29.4062C61.0664 28.9023 61.3008 28.4668 61.7695 28.0996C62.2383 27.7285 62.8145 27.543 63.498 27.543C64.2051 27.543 64.7617 27.7207 65.168 28.0762C65.5781 28.4277 65.7891 28.9199 65.8008 29.5527V32.5527C65.8008 33.166 65.8652 33.625 65.9941 33.9297V34H65.2441ZM63.041 33.4961C63.5098 33.4961 63.9277 33.3828 64.2949 33.1562C64.666 32.9297 64.9355 32.627 65.1035 32.248V30.8535H63.8496C63.1504 30.8613 62.6035 30.9902 62.209 31.2402C61.8145 31.4863 61.6172 31.8262 61.6172 32.2598C61.6172 32.6152 61.748 32.9102 62.0098 33.1445C62.2754 33.3789 62.6191 33.4961 63.041 33.4961ZM72.7734 30.8945C72.7734 31.8828 72.5547 32.668 72.1172 33.25C71.6797 33.8281 71.0938 34.1172 70.3594 34.1172C69.4922 34.1172 68.8281 33.8125 68.3672 33.2031V36.4375H67.6699V27.6602H68.3203L68.3555 28.5566C68.8125 27.8809 69.4746 27.543 70.3418 27.543C71.0996 27.543 71.6934 27.8301 72.123 28.4043C72.5566 28.9785 72.7734 29.7754 72.7734 30.7949V30.8945ZM72.0703 30.7715C72.0703 29.9629 71.9043 29.3242 71.5723 28.8555C71.2402 28.3867 70.7773 28.1523 70.1836 28.1523C69.7539 28.1523 69.3848 28.2559 69.0762 28.4629C68.7676 28.6699 68.5312 28.9707 68.3672 29.3652V32.4062C68.5352 32.7695 68.7754 33.0469 69.0879 33.2383C69.4004 33.4297 69.7695 33.5254 70.1953 33.5254C70.7852 33.5254 71.2441 33.291 71.5723 32.8223C71.9043 32.3496 72.0703 31.666 72.0703 30.7715ZM75.1172 34H74.4141V27.6602H75.1172V34ZM74.291 25.8262C74.291 25.6934 74.334 25.582 74.4199 25.4922C74.5059 25.3984 74.623 25.3516 74.7715 25.3516C74.9199 25.3516 75.0371 25.3984 75.123 25.4922C75.2129 25.582 75.2578 25.6934 75.2578 25.8262C75.2578 25.959 75.2129 26.0703 75.123 26.1602C75.0371 26.25 74.9199 26.2949 74.7715 26.2949C74.623 26.2949 74.5059 26.25 74.4199 26.1602C74.334 26.0703 74.291 25.959 74.291 25.8262ZM78.1172 26.0371V27.6602H79.4297V28.2344H78.1172V32.459C78.1172 32.8105 78.1797 33.0723 78.3047 33.2441C78.4336 33.416 78.6465 33.502 78.9434 33.502C79.0605 33.502 79.25 33.4824 79.5117 33.4434L79.541 34.0176C79.3574 34.084 79.1074 34.1172 78.791 34.1172C78.3105 34.1172 77.9609 33.9785 77.7422 33.7012C77.5234 33.4199 77.4141 33.0078 77.4141 32.4648V28.2344H76.248V27.6602H77.4141V26.0371H78.1172ZM84.8848 34C84.8145 33.8008 84.7695 33.5059 84.75 33.1152C84.5039 33.4355 84.1895 33.6836 83.8066 33.8594C83.4277 34.0312 83.0254 34.1172 82.5996 34.1172C81.9902 34.1172 81.4961 33.9473 81.1172 33.6074C80.7422 33.2676 80.5547 32.8379 80.5547 32.3184C80.5547 31.7012 80.8105 31.2129 81.3223 30.8535C81.8379 30.4941 82.5547 30.3145 83.4727 30.3145H84.7441V29.5938C84.7441 29.1406 84.6035 28.7852 84.3223 28.5273C84.0449 28.2656 83.6387 28.1348 83.1035 28.1348C82.6152 28.1348 82.2109 28.2598 81.8906 28.5098C81.5703 28.7598 81.4102 29.0605 81.4102 29.4121L80.707 29.4062C80.707 28.9023 80.9414 28.4668 81.4102 28.0996C81.8789 27.7285 82.4551 27.543 83.1387 27.543C83.8457 27.543 84.4023 27.7207 84.8086 28.0762C85.2188 28.4277 85.4297 28.9199 85.4414 29.5527V32.5527C85.4414 33.166 85.5059 33.625 85.6348 33.9297V34H84.8848ZM82.6816 33.4961C83.1504 33.4961 83.5684 33.3828 83.9355 33.1562C84.3066 32.9297 84.5762 32.627 84.7441 32.248V30.8535H83.4902C82.791 30.8613 82.2441 30.9902 81.8496 31.2402C81.4551 31.4863 81.2578 31.8262 81.2578 32.2598C81.2578 32.6152 81.3887 32.9102 81.6504 33.1445C81.916 33.3789 82.2598 33.4961 82.6816 33.4961ZM88.1016 34H87.3984V25H88.1016V34ZM97.6992 31.6094H93.8262L92.9473 34H92.1914L95.4199 25.4688H96.1055L99.334 34H98.584L97.6992 31.6094ZM94.0488 30.9941H97.4707L95.7598 26.3477L94.0488 30.9941ZM100.148 30.7715C100.148 29.7871 100.367 29.0039 100.805 28.4219C101.246 27.8359 101.844 27.543 102.598 27.543C103.453 27.543 104.105 27.8809 104.555 28.5566V25H105.252V34H104.596L104.566 33.1562C104.117 33.7969 103.457 34.1172 102.586 34.1172C101.855 34.1172 101.266 33.8242 100.816 33.2383C100.371 32.6484 100.148 31.8535 100.148 30.8535V30.7715ZM100.857 30.8945C100.857 31.7031 101.02 32.3418 101.344 32.8105C101.668 33.2754 102.125 33.5078 102.715 33.5078C103.578 33.5078 104.191 33.127 104.555 32.3652V29.3887C104.191 28.5645 103.582 28.1523 102.727 28.1523C102.137 28.1523 101.678 28.3848 101.35 28.8496C101.021 29.3105 100.857 29.9922 100.857 30.8945ZM109.072 33.0332L111 27.6602H111.721L109.354 34H108.785L106.406 27.6602H107.127L109.072 33.0332ZM113.66 34H112.957V27.6602H113.66V34ZM112.834 25.8262C112.834 25.6934 112.877 25.582 112.963 25.4922C113.049 25.3984 113.166 25.3516 113.314 25.3516C113.463 25.3516 113.58 25.3984 113.666 25.4922C113.756 25.582 113.801 25.6934 113.801 25.8262C113.801 25.959 113.756 26.0703 113.666 26.1602C113.58 26.25 113.463 26.2949 113.314 26.2949C113.166 26.2949 113.049 26.25 112.963 26.1602C112.877 26.0703 112.834 25.959 112.834 25.8262ZM119.367 32.3887C119.367 32.041 119.227 31.7617 118.945 31.5508C118.668 31.3398 118.248 31.1758 117.686 31.0586C117.123 30.9375 116.686 30.8008 116.373 30.6484C116.064 30.4922 115.834 30.3027 115.682 30.0801C115.533 29.8574 115.459 29.5879 115.459 29.2715C115.459 28.7715 115.668 28.3594 116.086 28.0352C116.504 27.707 117.039 27.543 117.691 27.543C118.398 27.543 118.965 27.7188 119.391 28.0703C119.82 28.418 120.035 28.873 120.035 29.4355H119.332C119.332 29.0645 119.176 28.7559 118.863 28.5098C118.555 28.2637 118.164 28.1406 117.691 28.1406C117.23 28.1406 116.859 28.2441 116.578 28.4512C116.301 28.6543 116.162 28.9199 116.162 29.248C116.162 29.5645 116.277 29.8105 116.508 29.9863C116.742 30.1582 117.166 30.3164 117.779 30.4609C118.396 30.6055 118.857 30.7598 119.162 30.9238C119.471 31.0879 119.699 31.2852 119.848 31.5156C119.996 31.7461 120.07 32.0254 120.07 32.3535C120.07 32.8887 119.854 33.3164 119.42 33.6367C118.99 33.957 118.428 34.1172 117.732 34.1172C116.994 34.1172 116.395 33.9395 115.934 33.584C115.477 33.2246 115.248 32.7715 115.248 32.2246H115.951C115.979 32.6348 116.15 32.9551 116.467 33.1855C116.787 33.4121 117.209 33.5254 117.732 33.5254C118.221 33.5254 118.615 33.418 118.916 33.2031C119.217 32.9883 119.367 32.7168 119.367 32.3887ZM121.266 30.7363C121.266 30.127 121.383 29.5781 121.617 29.0898C121.855 28.6016 122.189 28.2227 122.619 27.9531C123.053 27.6797 123.543 27.543 124.09 27.543C124.934 27.543 125.617 27.8398 126.141 28.4336C126.664 29.0234 126.926 29.8066 126.926 30.7832V30.9297C126.926 31.543 126.807 32.0957 126.568 32.5879C126.334 33.0762 126.002 33.4531 125.572 33.7188C125.143 33.9844 124.652 34.1172 124.102 34.1172C123.262 34.1172 122.578 33.8223 122.051 33.2324C121.527 32.6387 121.266 31.8535 121.266 30.877V30.7363ZM121.969 30.9297C121.969 31.6875 122.164 32.3105 122.555 32.7988C122.949 33.2832 123.465 33.5254 124.102 33.5254C124.734 33.5254 125.246 33.2832 125.637 32.7988C126.031 32.3105 126.229 31.668 126.229 30.8711V30.7363C126.229 30.252 126.139 29.8086 125.959 29.4062C125.779 29.0039 125.527 28.6934 125.203 28.4746C124.879 28.252 124.508 28.1406 124.09 28.1406C123.465 28.1406 122.955 28.3867 122.561 28.8789C122.166 29.3672 121.969 30.0078 121.969 30.8008V30.9297ZM131.309 28.2578C131.16 28.2305 131.002 28.2168 130.834 28.2168C130.396 28.2168 130.025 28.3398 129.721 28.5859C129.42 28.8281 129.205 29.1816 129.076 29.6465V34H128.379V27.6602H129.064L129.076 28.668C129.447 27.918 130.043 27.543 130.863 27.543C131.059 27.543 131.213 27.5684 131.326 27.6191L131.309 28.2578ZM136.219 32.3887C136.219 32.041 136.078 31.7617 135.797 31.5508C135.52 31.3398 135.1 31.1758 134.537 31.0586C133.975 30.9375 133.537 30.8008 133.225 30.6484C132.916 30.4922 132.686 30.3027 132.533 30.0801C132.385 29.8574 132.311 29.5879 132.311 29.2715C132.311 28.7715 132.52 28.3594 132.938 28.0352C133.355 27.707 133.891 27.543 134.543 27.543C135.25 27.543 135.816 27.7188 136.242 28.0703C136.672 28.418 136.887 28.873 136.887 29.4355H136.184C136.184 29.0645 136.027 28.7559 135.715 28.5098C135.406 28.2637 135.016 28.1406 134.543 28.1406C134.082 28.1406 133.711 28.2441 133.43 28.4512C133.152 28.6543 133.014 28.9199 133.014 29.248C133.014 29.5645 133.129 29.8105 133.359 29.9863C133.594 30.1582 134.018 30.3164 134.631 30.4609C135.248 30.6055 135.709 30.7598 136.014 30.9238C136.322 31.0879 136.551 31.2852 136.699 31.5156C136.848 31.7461 136.922 32.0254 136.922 32.3535C136.922 32.8887 136.705 33.3164 136.271 33.6367C135.842 33.957 135.279 34.1172 134.584 34.1172C133.846 34.1172 133.246 33.9395 132.785 33.584C132.328 33.2246 132.1 32.7715 132.1 32.2246H132.803C132.83 32.6348 133.002 32.9551 133.318 33.1855C133.639 33.4121 134.061 33.5254 134.584 33.5254C135.072 33.5254 135.467 33.418 135.768 33.2031C136.068 32.9883 136.219 32.7168 136.219 32.3887Z" fill="white"/>
<path d="M47.9595 10.4107L34 18.4643L46.5434 16.1071L47.9595 18.4643V16.8929L49.7803 18.4643L48.7688 15.125L49.7803 16.1071V14.5357L51.8035 17.4821L54.8382 18.4643L54.2312 17.4821L62.526 12.5714H63.7399L69.6069 19.0536L68.3931 15.125V13.5536L67.3815 14.5357L68.3931 5.30357L73.2486 7.26786L75.8786 9.625L75.2717 7.26786L87.4104 18.4643H88.6243L90.6474 17.4821L95.0983 22L92.0636 16.8929L97.9306 18.4643L104 21.0179L100.965 17.4821L97.9306 15.125L96.5145 16.1071L91.4566 11.3929L87.4104 13.5536L77.0925 5.30357H74.0578L68.3931 0L61.5145 6.67857L58.6821 7.26786L51.8035 13.5536L47.9595 10.4107Z" fill="white"/>
</svg>
