<svg width="20" height="10" viewBox="0 0 20 10" fill="none" xmlns="http://www.w3.org/2000/svg">
<path d="M0.667818 8.6263C0.461427 8.80975 0.442836 9.12579 0.626295 9.33218C0.809754 9.53857 1.12579 9.55716 1.33218 9.3737L0.667818 8.6263ZM10 1L10.3322 0.626295C10.1427 0.457901 9.85726 0.457901 9.66782 0.626295L10 1ZM18.6678 9.3737C18.8742 9.55716 19.1902 9.53857 19.3737 9.33218C19.5572 9.12579 19.5386 8.80975 19.3322 8.6263L18.6678 9.3737ZM1.33218 9.3737L10.3322 1.3737L9.66782 0.626295L0.667818 8.6263L1.33218 9.3737ZM9.66782 1.3737L18.6678 9.3737L19.3322 8.6263L10.3322 0.626295L9.66782 1.3737Z" fill="#3B6A17"/>
</svg>
